<?xml version="1.0" standalone="no"?>
<!DOCTYPE svg PUBLIC "-//W3C//DTD SVG 20010904//EN"
 "http://www.w3.org/TR/2001/REC-SVG-20010904/DTD/svg10.dtd">
<svg version="1.0" xmlns="http://www.w3.org/2000/svg"
 width="500.000000pt" height="500.000000pt" viewBox="0 0 500.000000 500.000000"
 preserveAspectRatio="xMidYMid meet">

<g transform="translate(0.000000,500.000000) scale(0.100000,-0.100000)"
fill="#000000" stroke="none">
<path d="M1460 3655 c0 -2 5 -16 12 -30 l11 -25 1008 0 c987 0 1009 0 1019 19
5 11 10 24 10 30 0 8 -308 11 -1030 11 -566 0 -1030 -2 -1030 -5z"/>
<path d="M1490 3140 l0 -430 55 0 55 0 2 373 3 372 63 3 62 3 0 -376 0 -375
25 0 25 0 2 373 3 372 68 3 67 3 0 -376 0 -375 25 0 25 0 2 373 3 372 58 3
c51 3 57 1 58 -18 1 -11 3 -24 4 -30 1 -5 3 -165 4 -355 l1 -345 25 0 25 0 2
373 3 372 62 3 63 3 2 -373 3 -373 25 0 25 0 5 370 5 370 148 3 147 3 0 -376
0 -375 25 0 c14 0 25 3 25 8 0 4 1 167 1 362 0 233 4 359 11 367 6 8 34 13 69
13 l59 0 0 -375 0 -375 25 0 25 0 2 373 3 372 68 3 67 3 0 -376 0 -375 25 0
c14 0 25 5 25 10 0 6 0 168 0 362 0 240 4 356 11 365 7 7 32 13 60 13 l49 0 0
-376 0 -375 28 3 27 3 5 370 5 370 68 3 67 3 0 -376 0 -376 53 3 52 3 0 425 0
425 -1002 3 -1003 2 0 -430z"/>
<path d="M1865 2670 c-311 -4 -118 -6 629 -8 594 -1 1077 1 1073 4 -8 8 -1118
11 -1702 4z"/>
<path d="M1350 2608 c0 -5 514 -8 1142 -8 628 0 1138 3 1134 7 -10 10 -2276
10 -2276 1z"/>
<path d="M1262 2554 c8 -7 2458 -8 2465 0 4 3 -551 6 -1232 6 -681 0 -1236 -3
-1233 -6z"/>
<path d="M1190 2500 c0 -5 3 -10 8 -10 23 0 2569 -1 2580 0 6 0 12 5 12 10 0
7 -440 10 -1300 10 -860 0 -1300 -3 -1300 -10z"/>
<path d="M3738 2273 c-2 -31 -7 -39 -25 -41 -31 -4 -29 -33 2 -71 l26 -30 -21
-11 c-20 -11 -21 -13 -5 -30 18 -19 31 -97 41 -232 10 -144 26 -112 39 79 3
45 13 105 22 134 13 40 14 54 5 57 -8 2 -6 11 7 28 21 26 19 42 -13 118 -15
36 -18 38 -29 22 -12 -17 -15 -17 -30 -2 -15 15 -16 13 -19 -21z"/>
<path d="M4095 2291 c-75 -19 -115 -63 -115 -125 0 -74 50 -124 165 -162 99
-33 145 -74 145 -127 0 -70 -79 -117 -168 -101 -53 10 -67 19 -103 69 -33 46
-59 58 -59 28 1 -46 77 -118 137 -129 84 -16 193 20 236 78 13 17 20 44 21 72
1 38 -4 50 -34 81 -34 36 -99 74 -150 90 -104 32 -150 83 -129 143 12 36 54
56 110 54 52 -2 117 -30 124 -53 4 -10 10 -19 15 -19 5 0 15 -3 24 -6 47 -18
-16 67 -70 94 -29 15 -113 22 -149 13z"/>
<path d="M120 2026 l0 -264 23 -6 c12 -3 88 -6 170 -6 140 0 147 1 147 20 0
19 -7 20 -112 20 -175 0 -158 -25 -158 225 0 259 -2 275 -41 275 l-29 0 0
-264z"/>
<path d="M620 2026 l0 -263 31 -7 c17 -3 96 -6 174 -6 138 0 143 1 138 20 -5
19 -14 20 -122 20 -79 0 -123 4 -134 13 -15 10 -17 27 -15 112 l3 100 113 3
c90 2 112 5 112 17 0 12 -19 15 -98 15 -131 0 -134 2 -130 110 l3 85 138 -1
c114 0 137 2 132 14 -3 7 -5 18 -5 23 0 5 -73 9 -170 9 l-170 0 0 -264z"/>
<path d="M1283 2278 c-6 -7 -40 -86 -77 -175 -36 -90 -84 -203 -105 -253 -30
-67 -36 -90 -25 -90 14 0 19 10 60 108 l17 42 132 0 c151 0 148 2 189 -92 21
-47 30 -57 56 -63 17 -4 34 -4 37 -1 7 7 -199 455 -231 503 -22 35 -38 41 -53
21z m122 -317 l7 -24 -116 5 c-63 2 -118 7 -121 9 -3 3 13 48 36 100 22 52 47
109 55 128 l15 35 58 -115 c32 -63 62 -125 66 -138z"/>
<path d="M1730 2025 c0 -255 1 -265 19 -265 11 0 26 -3 35 -6 14 -5 16 9 16
115 l0 121 25 0 c50 0 89 -30 145 -112 71 -104 112 -140 153 -136 37 3 45 31
11 36 -12 2 -30 13 -41 25 -33 36 -123 173 -123 185 0 7 -8 12 -17 13 -10 0 4
8 32 17 40 14 54 25 72 57 31 55 30 105 -4 146 -45 53 -93 69 -215 69 l-108 0
0 -265z m228 205 c83 -51 56 -170 -46 -201 -22 -6 -56 -9 -76 -5 l-36 7 0 109
0 110 63 0 c44 0 71 -6 95 -20z"/>
<path d="M2760 2085 c0 -113 -3 -205 -7 -205 -4 0 -99 91 -210 202 -111 111
-205 200 -207 197 -7 -6 -14 -490 -8 -506 2 -7 10 -13 18 -13 11 0 14 35 14
195 0 181 1 194 18 188 9 -3 105 -93 213 -200 108 -108 199 -191 203 -185 7
12 7 465 -1 505 -3 15 -12 27 -19 27 -11 0 -14 -37 -14 -205z"/>
<path d="M3027 2283 c-4 -3 -7 -123 -7 -265 0 -200 3 -258 13 -258 6 0 22 -3
35 -6 l22 -6 0 136 0 136 155 0 c180 0 163 16 167 -147 2 -56 5 -104 8 -106 3
-3 18 -7 34 -9 l29 -3 1 235 c1 266 -3 300 -39 300 -30 0 -34 -14 -38 -140
l-2 -95 -138 -3 c-180 -3 -179 -4 -177 101 3 106 -5 137 -34 137 -13 0 -26 -3
-29 -7z"/>
<path d="M4465 2281 c-11 -18 39 -34 111 -36 39 -1 77 -5 83 -9 8 -5 11 -79
11 -242 0 -180 3 -234 13 -234 6 0 22 -3 35 -6 l22 -6 0 248 0 249 100 -2 100
-2 0 24 0 25 -234 0 c-138 0 -237 -4 -241 -9z"/>
</g>
</svg>
